<?xml version="1.0" standalone="no"?>
<!DOCTYPE svg PUBLIC "-//W3C//DTD SVG 20010904//EN"
 "http://www.w3.org/TR/2001/REC-SVG-20010904/DTD/svg10.dtd">
<svg version="1.0" xmlns="http://www.w3.org/2000/svg"
 width="1100.000000pt" height="1100.000000pt" viewBox="0 0 1100.000000 1100.000000"
 preserveAspectRatio="xMidYMid meet">
<metadata>
Created by potrace 1.11, written by Peter Selinger 2001-2013
</metadata>
<g transform="translate(0.000000,1100.000000) scale(0.100000,-0.100000)"
fill="#000000" stroke="none">
<path d="M4178 10475 c-2 -1 -46 -5 -99 -9 -53 -4 -107 -9 -120 -11 -13 -2
-46 -6 -74 -9 -81 -10 -95 -12 -305 -52 -314 -60 -836 -257 -1092 -413 -37
-23 -70 -41 -73 -41 -3 0 -39 -22 -81 -50 -41 -27 -78 -50 -80 -50 -3 0 -10
-5 -17 -10 -7 -6 -57 -43 -112 -83 -657 -479 -1059 -1132 -1143 -1857 -10 -88
-9 -448 1 -535 34 -287 118 -568 243 -817 191 -381 513 -730 894 -972 126 -80
367 -192 525 -244 206 -69 376 -106 580 -129 142 -15 484 -9 635 11 19 3 58 8
85 12 28 3 57 7 65 9 8 1 38 6 65 9 54 8 55 8 195 31 109 17 107 17 260 44
164 30 168 30 247 46 40 8 75 15 79 15 7 0 -1 -86 -16 -185 -5 -33 -12 -78
-15 -100 -3 -22 -8 -51 -10 -65 -3 -14 -7 -38 -9 -55 -20 -124 -46 -267 -80
-437 -4 -16 -8 -40 -11 -55 -38 -189 -162 -620 -209 -726 -8 -18 -38 -88 -66
-157 -58 -139 -237 -510 -295 -610 -100 -172 -207 -348 -227 -372 l-23 -27
-100 58 c-184 105 -520 279 -655 339 -25 11 -67 29 -95 42 -128 56 -338 130
-460 161 -169 44 -281 57 -450 54 -88 -2 -169 -5 -180 -8 -11 -3 -40 -8 -65
-12 -66 -11 -71 -12 -120 -25 -416 -108 -731 -382 -796 -691 -54 -259 42 -536
255 -737 137 -130 369 -249 596 -306 93 -23 199 -43 280 -51 28 -3 68 -8 90
-10 49 -5 322 -5 390 0 163 13 396 73 555 142 57 25 230 110 250 123 8 5 67
40 130 76 158 91 153 88 307 187 l137 89 41 -21 c22 -11 99 -52 170 -91 128
-70 453 -232 570 -285 322 -146 738 -290 1023 -355 32 -7 52 -17 52 -26 0 -29
-92 -216 -185 -374 -95 -163 -148 -276 -141 -303 7 -30 40 -45 124 -57 140
-20 237 -7 304 43 41 31 74 107 98 232 22 112 47 173 102 254 18 25 47 69 66
96 19 28 37 49 41 49 3 -1 56 -5 116 -10 213 -15 692 -9 797 11 11 3 46 7 77
10 31 4 63 8 71 10 8 3 31 7 50 10 74 12 229 45 305 65 44 11 87 22 95 24 45
12 299 99 386 134 333 132 656 313 954 536 102 76 103 77 230 187 456 396 793
894 940 1390 66 222 85 360 85 609 0 191 -12 344 -31 400 -3 8 -8 33 -11 55
-9 65 -68 264 -113 376 -145 366 -391 693 -651 864 -124 82 -662 347 -886 436
-122 48 -333 103 -438 114 -23 2 -54 9 -70 16 -17 6 -69 20 -117 29 -83 17
-170 57 -186 85 -4 7 -38 48 -77 90 -85 94 -83 91 -95 140 -11 42 -47 159 -57
185 -3 8 -7 20 -9 25 -1 6 -11 33 -22 62 l-20 51 50 74 c144 215 284 512 379
802 29 87 93 342 102 401 3 17 10 57 15 90 34 189 46 340 47 575 0 223 -12
334 -51 470 -40 138 -126 272 -222 343 -50 37 -75 50 -167 88 -11 4 -36 11
-55 15 -19 4 -42 9 -50 11 -39 9 -213 11 -240 3 -16 -5 -30 -6 -30 -2 0 4 19
34 41 67 50 76 57 102 64 249 4 66 6 122 7 125 6 65 -19 82 -130 85 -96 4
-116 -5 -266 -124 -107 -85 -150 -142 -167 -219 -29 -135 -144 -344 -267 -482
-106 -120 -153 -169 -223 -229 -80 -69 -224 -213 -312 -310 l-68 -75 -35 39
c-43 49 -82 132 -90 188 -8 54 6 68 108 109 125 51 142 86 93 191 -14 29 -25
66 -25 81 0 15 -7 30 -15 33 -8 3 -19 22 -26 42 -7 21 -22 51 -34 67 -16 22
-22 42 -20 75 2 60 -7 74 -54 89 -39 11 -68 41 -54 55 3 3 -9 6 -28 6 -29 0
-41 8 -73 46 -21 25 -83 75 -137 110 -55 35 -99 66 -99 69 0 4 5 3 12 -1 7 -5
8 -3 3 5 -4 7 -26 21 -49 31 -22 9 -66 29 -97 43 -113 53 -354 117 -489 132
-30 3 -66 8 -80 10 -81 12 -192 18 -402 20 -131 1 -239 1 -240 0z m567 -119
c95 -6 136 -10 230 -21 22 -3 60 -7 85 -10 58 -7 110 -14 140 -20 14 -3 52
-10 85 -16 71 -13 104 -28 65 -29 -14 -1 -34 -3 -45 -5 -11 -2 -41 -6 -68 -9
-26 -3 -51 -7 -55 -9 -4 -3 -41 -8 -82 -12 -125 -11 -210 -64 -347 -220 -174
-196 -212 -326 -228 -790 -8 -231 -8 -232 155 -341 52 -35 105 -71 118 -80 20
-15 25 -15 32 -3 8 11 12 11 24 -6 12 -16 16 -17 30 -6 14 11 16 11 16 -2 0
-18 45 -67 62 -67 6 0 8 11 6 25 -7 34 20 33 47 -1 12 -15 27 -25 34 -23 8 3
0 20 -23 51 -20 26 -32 49 -26 53 5 3 17 -10 27 -29 17 -37 27 -44 38 -26 4 7
19 3 39 -10 19 -11 47 -20 63 -20 39 0 112 48 180 119 18 19 35 32 38 29 3 -3
8 -41 12 -86 7 -96 -4 -120 -97 -205 -45 -41 -73 -57 -118 -70 -155 -43 -408
-172 -497 -254 -11 -10 -54 -44 -95 -75 -41 -32 -86 -68 -100 -80 -58 -54
-146 -107 -310 -189 -210 -105 -304 -144 -512 -215 -184 -63 -215 -75 -498
-204 -261 -119 -281 -128 -395 -178 -49 -22 -112 -49 -140 -62 -27 -12 -60
-26 -72 -31 -13 -5 -34 -13 -48 -19 -14 -5 -35 -14 -47 -20 -13 -5 -60 -25
-106 -44 -46 -19 -140 -68 -210 -109 -70 -41 -143 -84 -162 -94 -19 -11 -75
-44 -124 -72 -100 -58 -218 -111 -248 -111 -31 0 -55 -17 -66 -47 -5 -16 -22
-35 -38 -43 -32 -17 -94 -69 -94 -80 0 -4 17 -19 38 -34 34 -23 42 -25 71 -15
17 6 35 8 39 4 4 -4 -7 -33 -24 -64 -32 -58 -33 -77 -4 -81 31 -5 39 2 89 78
62 95 137 172 183 188 42 14 161 12 211 -5 20 -7 42 -22 49 -34 7 -14 12 -71
13 -147 0 -136 9 -166 51 -176 35 -9 43 3 50 72 13 148 36 214 128 358 31 49
56 93 56 98 0 32 46 69 120 97 74 29 464 143 527 155 16 3 57 12 93 21 36 9
175 43 310 76 245 60 341 91 414 137 111 69 291 146 632 270 260 95 372 138
398 153 36 21 149 60 210 73 87 18 145 12 222 -24 36 -16 70 -30 75 -30 6 0 8
-8 5 -17 -6 -22 -52 -216 -60 -258 -4 -16 -8 -40 -11 -53 -2 -13 -6 -31 -9
-40 -3 -9 -7 -28 -10 -42 -3 -14 -39 -189 -81 -390 -41 -201 -77 -374 -79
-385 -3 -16 -34 -163 -61 -285 -2 -8 -10 -49 -19 -90 -15 -73 -39 -185 -108
-497 l-33 -151 -99 -27 c-99 -27 -119 -32 -166 -41 -14 -3 -54 -12 -90 -20
-36 -9 -78 -18 -95 -21 -16 -2 -46 -8 -65 -13 -102 -26 -538 -96 -668 -107
-141 -12 -388 -7 -522 12 -8 1 -40 5 -70 9 -82 11 -282 60 -385 94 -356 117
-673 309 -939 570 -393 385 -627 860 -683 1387 -13 124 -6 459 12 525 2 8 6
31 9 50 5 32 19 104 30 155 18 83 60 217 108 345 7 19 45 100 85 180 361 730
1103 1310 2013 1574 114 34 284 73 349 82 18 2 36 6 40 8 3 2 31 7 61 11 30 3
84 10 120 15 36 5 106 12 155 15 50 4 91 8 92 9 5 4 460 -2 548 -8z m2833
-521 c237 -37 372 -186 417 -460 17 -108 24 -404 12 -497 -4 -27 -10 -69 -13
-95 -15 -131 -127 -538 -173 -638 -5 -11 -31 -69 -57 -130 -62 -145 -140 -302
-228 -454 -39 -67 -76 -132 -82 -143 -24 -42 -31 -41 -62 14 -17 30 -41 63
-53 74 -30 27 -59 89 -113 237 -43 120 -46 135 -51 255 -8 201 -25 281 -80
397 -50 103 -165 227 -245 265 -40 18 -59 54 -71 132 -20 134 -6 279 29 293
24 9 49 -23 87 -114 39 -95 59 -121 90 -121 27 0 46 37 39 77 -7 41 -35 126
-46 140 -6 7 -9 34 -9 60 6 196 10 251 19 273 10 25 169 295 212 361 46 69
209 101 378 74z m-1480 -2819 c12 -16 22 -42 22 -58 0 -28 -6 -44 -63 -153
-14 -27 -28 -69 -30 -92 -3 -23 -21 -88 -40 -145 -20 -57 -41 -145 -48 -195
-6 -51 -15 -93 -19 -93 -4 0 -6 10 -5 23 2 12 6 76 9 142 4 66 9 131 11 145 2
14 6 59 10 100 12 145 42 395 51 422 4 13 12 8 43 -25 20 -23 47 -55 59 -71z
m1377 -1416 c58 -22 214 -69 247 -75 13 -3 52 -12 88 -21 36 -9 74 -18 85 -20
161 -34 445 -101 451 -106 3 -4 -61 -51 -142 -104 -82 -53 -230 -150 -329
-214 -176 -115 -310 -190 -339 -190 -8 0 -37 13 -63 28 -196 116 -284 82 -350
-134 -24 -77 -97 -207 -143 -253 -65 -67 -288 -251 -302 -251 -9 0 10 78 99
415 99 375 127 475 145 512 14 28 80 57 163 72 l40 7 3 96 3 96 32 15 c18 7
70 29 116 48 81 33 88 39 105 93 4 12 12 16 24 11 9 -4 40 -15 67 -25z m2363
-292 c66 -98 125 -204 166 -297 60 -136 127 -365 142 -481 3 -19 7 -46 9 -60
19 -98 25 -370 12 -515 -8 -91 -11 -113 -32 -210 -8 -38 -17 -80 -19 -91 -12
-61 -84 -252 -131 -349 -117 -239 -277 -444 -485 -625 -41 -36 -77 -67 -80
-70 -25 -27 -234 -167 -331 -223 -175 -100 -545 -255 -699 -292 -8 -2 -85 -22
-170 -44 -85 -21 -171 -42 -190 -45 -19 -3 -46 -8 -60 -11 -13 -2 -42 -7 -65
-10 -22 -3 -47 -8 -55 -10 -8 -2 -37 -7 -65 -10 -27 -3 -59 -7 -70 -9 -11 -2
-54 -7 -95 -11 -41 -4 -86 -9 -100 -10 -204 -25 -892 -25 -1125 0 -22 2 -67 7
-100 10 -33 4 -61 8 -63 10 -2 2 13 65 33 141 63 240 85 328 91 359 3 17 9 46
14 65 4 19 11 60 15 90 3 30 8 71 10 90 6 47 13 141 21 280 9 162 34 275 95
418 19 44 44 134 53 187 14 87 22 176 31 350 3 64 9 70 70 78 53 8 296 88 373
123 31 15 114 50 183 80 70 29 153 66 185 83 76 38 395 192 504 243 47 22 135
60 195 85 123 51 1091 373 1282 426 67 19 140 45 163 58 102 61 210 176 226
242 3 15 8 27 10 27 2 0 25 -33 52 -72z m-3944 50 c14 -6 28 -18 31 -27 5 -17
14 -236 20 -506 2 -88 7 -257 11 -375 11 -343 10 -569 -3 -650 -12 -75 -18
-139 -28 -302 -6 -97 -15 -148 -44 -265 -11 -43 -22 -96 -26 -118 -3 -22 -8
-53 -11 -70 -16 -93 -22 -242 -22 -608 0 -224 -1 -410 -3 -412 -3 -2 -137 19
-299 46 -162 27 -311 52 -330 55 -30 5 -282 57 -334 69 -144 33 -506 144 -506
155 0 3 17 24 38 46 20 23 75 85 122 139 47 54 90 103 95 109 78 83 332 416
445 581 372 547 620 1146 750 1810 16 78 18 88 24 115 3 14 8 36 10 50 11 71
30 170 32 170 2 0 14 -5 28 -12z m-3764 -2318 c288 -61 698 -248 1155 -527
151 -93 365 -235 365 -244 0 -14 -135 -138 -223 -204 -23 -17 -60 -44 -81 -61
-246 -184 -639 -363 -921 -420 -339 -69 -690 -3 -965 181 -272 182 -413 468
-350 710 68 261 353 500 681 569 90 19 238 17 339 -4z"/>
</g>
</svg>
