<?xml version="1.0" encoding="utf-8"?>
<!-- Generator: Adobe Illustrator 21.0.0, SVG Export Plug-In . SVG Version: 6.00 Build 0)  -->
<svg version="1.1" id="Capa_1" xmlns="http://www.w3.org/2000/svg" xmlns:xlink="http://www.w3.org/1999/xlink" x="0px" y="0px"
	 viewBox="0 0 60 60" enable-background="new 0 0 60 60" xml:space="preserve">
<g>
	<g>
		<path d="M51.92,7.93H8.09C4.18,7.93,1,11.11,1,15.02v29.95c0,3.91,3.18,7.09,7.09,7.09h43.81c3.91,0,7.09-3.18,7.09-7.09V15.03
			C59.01,11.12,55.83,7.93,51.92,7.93z M55.77,44.98c0,2.12-1.73,3.85-3.85,3.85H8.09c-2.12,0-3.85-1.73-3.85-3.85V15.03
			c0-2.12,1.73-3.85,3.85-3.85h43.81c2.12,0,3.85,1.73,3.85,3.85v29.94H55.77z"/>
		<path d="M37.58,29.63l14.18-12.72c0.66-0.6,0.72-1.62,0.12-2.29c-0.6-0.66-1.62-0.72-2.29-0.12L30.03,32.05l-3.82-3.41
			c-0.01-0.01-0.02-0.02-0.02-0.04c-0.08-0.08-0.17-0.16-0.26-0.23L10.4,14.48c-0.67-0.6-1.69-0.54-2.29,0.13
			c-0.6,0.67-0.54,1.69,0.13,2.29l14.35,12.83L8.3,43.12c-0.65,0.61-0.68,1.63-0.07,2.29c0.32,0.34,0.76,0.52,1.19,0.52
			c0.4,0,0.79-0.14,1.1-0.43l14.51-13.57l3.94,3.52c0.31,0.28,0.7,0.41,1.08,0.41s0.78-0.14,1.08-0.42l4.04-3.62l14.42,13.7
			c0.31,0.3,0.72,0.44,1.12,0.44c0.43,0,0.85-0.17,1.18-0.5c0.61-0.65,0.59-1.68-0.06-2.29L37.58,29.63z"/>
	</g>
</g>
</svg>
