<?xml version="1.0" encoding="utf-8"?>
<!-- Generator: Adobe Illustrator 21.0.0, SVG Export Plug-In . SVG Version: 6.00 Build 0)  -->
<svg version="1.1" id="Camada_1" xmlns="http://www.w3.org/2000/svg" xmlns:xlink="http://www.w3.org/1999/xlink" x="0px" y="0px"
	 viewBox="0 0 62 62" enable-background="new 0 0 62 62" xml:space="preserve">
<g>
	<path fill="#FFFFFF" d="M31,16.82c-7.82,0-14.18,6.36-14.18,14.18c0,7.82,6.36,14.18,14.18,14.18c7.82,0,14.18-6.36,14.18-14.18
		C45.18,23.18,38.82,16.82,31,16.82z M31,41.82c-5.97,0-10.82-4.85-10.82-10.82c0-5.97,4.85-10.82,10.82-10.82
		c5.97,0,10.82,4.85,10.82,10.82C41.82,36.97,36.97,41.82,31,41.82z"/>
	<circle fill="#FFFFFF" cx="47.17" cy="15.18" r="3.52"/>
	<path fill="#FFFFFF" d="M60.93,23.57c-0.04-3.05-0.09-6.21-0.91-9.42c-0.94-3.69-2.8-6.69-5.52-8.91
		c-2.82-2.3-6.35-3.64-10.23-3.87C40.05,1.11,35.71,0.99,31.01,1c-4.71-0.01-9.06,0.11-13.29,0.37C13.85,1.6,10.31,2.94,7.49,5.24
		c-2.72,2.22-4.57,5.21-5.52,8.91c-0.82,3.22-0.86,6.37-0.91,9.42C1.04,25.76,1.01,28.35,1,31.01c0.01,2.64,0.04,5.24,0.07,7.43
		c0.04,3.05,0.09,6.21,0.91,9.42c0.94,3.69,2.8,6.69,5.52,8.91c2.82,2.3,6.35,3.64,10.23,3.87c4.23,0.26,8.57,0.38,13.27,0.37
		c0.2,0,0.4,0,0.6,0c4.48,0,8.64-0.12,12.69-0.37c3.87-0.24,7.41-1.57,10.23-3.87c2.72-2.22,4.57-5.21,5.52-8.91
		c0.82-3.22,0.86-6.37,0.91-9.42c0.03-2.19,0.06-4.79,0.07-7.43v-0.01C60.99,28.35,60.96,25.76,60.93,23.57z M58.16,31
		c-0.01,2.39-0.03,4.74-0.06,6.72c-0.04,2.76-0.08,5.62-0.82,8.53c-0.85,3.34-2.53,6.06-5,8.06c-2.55,2.08-5.75,3.29-9.26,3.51
		c-3.66,0.22-7.43,0.33-11.49,0.33c-0.18,0-0.36,0-0.54,0c-4.26,0.01-8.19-0.1-12.02-0.33c-3.51-0.21-6.71-1.43-9.26-3.51
		c-2.46-2.01-4.14-4.72-5-8.06c-0.74-2.91-0.78-5.77-0.82-8.53C3.87,35.74,3.84,33.39,3.84,31c0.01-2.4,0.03-4.75,0.06-6.73
		c0.04-2.76,0.08-5.62,0.82-8.53c0.85-3.34,2.53-6.06,5-8.06c2.55-2.08,5.75-3.29,9.26-3.51c3.83-0.23,7.76-0.34,12.03-0.33
		c4.26-0.01,8.19,0.1,12.02,0.33c3.51,0.21,6.71,1.43,9.26,3.51c2.46,2.01,4.14,4.72,5,8.06c0.74,2.91,0.78,5.77,0.82,8.53
		C58.13,26.25,58.16,28.61,58.16,31L58.16,31z"/>
</g>
</svg>
