<?xml version="1.0" encoding="utf-8"?>
<!-- Generator: Adobe Illustrator 21.0.0, SVG Export Plug-In . SVG Version: 6.00 Build 0)  -->
<svg version="1.1" id="Camada_1" xmlns="http://www.w3.org/2000/svg" xmlns:xlink="http://www.w3.org/1999/xlink" x="0px" y="0px"
	 viewBox="0 0 102 102" style="enable-background:new 0 0 102 102;" xml:space="preserve">
<style type="text/css">
	.st0{fill:#FF3399;}
	.st1{fill:#FFFFFF;}
</style>
<g>
	<g>
		<path class="st0" d="M49.6,3.3c-0.1,0-0.2-0.1-0.3-0.2c0,0,0,0,0,0c-0.3,0-0.5,0-0.8,0c0.4,0.1,0.8,0.2,1.2,0.3
			c0.1,0,0.2,0,0.3,0.1C49.8,3.4,49.7,3.3,49.6,3.3z M91.8,49.1c-0.7-0.7-1.5-1.3-2.3-1.8L89,48.5c1.3,1.1,2.5,2.2,3.4,3.5
			c2.8,3.7,4,8.1,4,12.5c0,13.3-12.5,22.4-31.6,22.4c-2.9,0-5.4-0.1-7.9-0.4c-1.3-0.2-2.7-0.4-4.1-0.7c0,0.9,0,1.8,0.1,2.7
			c0.1,1.7,0,3.3-0.1,5c1.3,0.3,2.6,0.5,4,0.7c1.6,0.2,3.3,0.3,5.1,0.3C80,94.4,98,79.8,98,64.4C98,58.5,95.5,52.6,91.8,49.1z"/>
		<path class="st0" d="M69,6.2c-0.4,0-0.8,0.1-1.3,0.1c-2.3,0.5-5.4,2-8.5,4.6l0,0c-1.6,1.3-3.1,2.8-4.6,4.6
			c-0.6,0.8-1.2,1.5-1.8,2.4c-2.3,3.3-3.4,6-4.5,10.4c-1.1,4.6-2.3,11-4.8,22.1c-3.1,0.9-9.8,2.2-12.8,2.4
			C16.6,53.3,5.8,42.4,5.6,30.3C5.2,14,21.7,2.1,38.1,2.1c2.5,0,6.1,0.1,10.4,1c0.3,0,0.5,0,0.8,0c0,0,0,0,0,0
			c-3-1.6-7-2.1-11.2-2.1C21.5,1,3.6,12.8,4.1,30.3C4.5,44,16.3,54.7,30.7,54c4-0.2,12.4-1.9,12.4-1.9s-1.1,10-3.5,16
			c-2.8,7.2-6.2,12-6.2,12c-8.1-4.6-13.1-6.6-17.4-6.6C9.7,73.5,4,77.3,4,82.2c0,6.5,6.9,9.8,14.3,9.8c5.2,0,8.5-1.4,15.8-6.3
			c8.2,4.6,13.5,6.5,18.6,7.7c0.1-1.7,0.2-3.3,0.1-5c0-0.9-0.1-1.8-0.1-2.7c-3.7-0.8-9.3-1.3-14.9-3.3C48.5,70.9,51.2,63,53.1,52.1
			c0.2-1.3,0.4-2.6,0.5-4C61.4,44.6,66.6,40,70,35c4.5-6.5,6-13.7,6-19.7C76,10.9,74.9,6.2,69,6.2z M16.2,90.4
			c-6.1,0-10.8-3.9-10.8-8.2c0-3.4,4.4-6.9,8.6-6.9c5.3,0,15.1,6.5,17.1,7.9C27.3,87.1,20.9,90.4,16.2,90.4z M68.8,32.1
			c-3.9,6.2-9.5,11.8-15.2,14.1c0-0.6,0-1.1,0-1.7c0.1-3.4,0.4-6.8,0.9-10.1c1.9-12.8,6.7-24.1,12.2-26.6c0.8-0.3,1.5-0.5,2.3-0.5
			c5.3,0,5.7,3.9,5.7,8C74.7,20.2,72.4,26.5,68.8,32.1z"/>
	</g>
	<g>
		<path class="st1" d="M55.5,10.6C55.5,10.5,55.5,10.5,55.5,10.6c-0.3-0.4-0.4-0.8-0.5-1.3C55.1,9.1,55,9,54.9,9
			c-0.2-0.1-0.2-0.2-0.2-0.4c0-0.2-0.1-0.4-0.2-0.5c-0.3-0.3-0.4-0.6-0.3-1c0.1-0.4,0-0.6-0.4-0.7c0,0-0.1,0-0.1,0
			c-0.5-0.2-0.5-0.2-0.5-0.6c-0.1-0.1-0.1,0-0.2,0c-0.2,0.1-0.4,0-0.6-0.2c0,0,0-0.1-0.1-0.1c-0.3-0.5-0.8-0.8-1.3-1.2
			c-0.3-0.2-0.6-0.4-1-0.6c-0.1-0.1-0.2-0.2-0.3-0.3v0c0,0,0-0.1,0-0.1c-0.1-0.1-0.2-0.2-0.3-0.2c0,0,0,0,0,0c-0.3,0-0.5,0-0.8,0
			c-0.2,0-0.3,0-0.5,0.1c-0.3,0.1-0.7,0.1-1,0.1c-0.2,0-0.4,0-0.5,0.1c-0.5,0.2-0.9,0.2-1.4,0.2c-0.5,0-0.9,0.2-1.3,0.5
			c-1.3,1-2.4,2.2-3.2,3.6c-0.3,0.5-0.4,1.1-0.5,1.7c-0.3,1.2-0.4,2.4-0.4,3.7c0,0.5,0,1-0.1,1.5c0,0.3,0,0.7,0,1
			c0,0.3,0.2,0.5,0.4,0.7c0.2,0.3,0.5,0.5,0.8,0.6c0.6,0.3,1.1,0.7,1.6,1.1c0.1,0.1,0.2,0.1,0.3-0.1c0-0.1,0.1-0.1,0.2,0
			c0,0,0,0.1,0.1,0.2c0,0.1,0.1,0.1,0.2,0.1c0.1,0,0.1-0.1,0.1-0.2c0,0,0-0.1,0-0.1c0.2,0.2,0.1,0.4,0.3,0.5s0.3,0.3,0.5,0.3
			c0-0.2-0.1-0.3-0.1-0.5c0.3,0,0.5,0.1,0.7,0.3c0.1,0.1,0.2,0.2,0.3,0.2c0-0.2-0.1-0.2-0.2-0.3c-0.1-0.2-0.3-0.3-0.4-0.5
			c0-0.1-0.1-0.2,0-0.3c0.1-0.1,0.2,0.1,0.2,0.1c0,0.1,0.1,0.1,0.1,0.2c0,0.1,0.1,0.2,0.1,0.3c0.1,0.1,0.1,0.1,0.2,0
			c0-0.1,0.1-0.1,0.2-0.1c0.2,0.1,0.3,0.2,0.5,0.3c0.3,0.1,0.5,0.1,0.7,0c0.3-0.2,0.6-0.3,0.8-0.5c0-0.1,0.1-0.1,0.2-0.1
			c0.3-0.2,0.6-0.4,0.7-0.7c0-0.1,0.1-0.1,0.2-0.1s0.1,0.1,0.1,0.2c0.1,0.5,0.2,1,0.1,1.6c0,0.2-0.1,0.3-0.2,0.5
			c-0.4,0.4-0.8,0.8-1.2,1.2c-0.1,0.1-0.3,0.2-0.5,0.2c-1,0.3-2,0.7-2.9,1.1c-0.6,0.3-1.1,0.6-1.6,1c-1,0.8-2,1.6-3,2.4
			c-0.3,0.3-0.6,0.5-1,0.7c-1.7,0.9-3.3,1.8-5.1,2.5c-0.8,0.3-1.6,0.6-2.4,0.8c-1.4,0.5-2.8,1.1-4.1,1.7c-2.8,1.3-5.6,2.6-8.4,3.7
			c-0.7,0.3-1.3,0.6-1.9,1c-1.1,0.6-2.2,1.3-3.3,1.9c-0.5,0.3-1,0.5-1.5,0.7c-0.3,0.1-0.6,0.2-0.9,0.3c-0.3,0-0.4,0.1-0.5,0.5
			c0,0.1-0.1,0.3-0.2,0.3c-0.4,0.2-0.8,0.5-1.1,0.8V40c0.1,0.1,0.3,0.2,0.4,0.3c0.1,0.2,0.3,0.2,0.4,0.2c0.1,0,0.3-0.1,0.4-0.1
			c0.1,0,0.2-0.1,0.3,0c0,0.2-0.1,0.4-0.2,0.5c-0.1,0.2-0.2,0.4-0.3,0.6c0,0.1,0,0.2,0.1,0.3c0.1,0.1,0.2,0.1,0.4,0
			c0.1-0.1,0.2-0.2,0.3-0.3c0.2-0.3,0.4-0.6,0.6-0.9c0.3-0.4,0.6-0.8,1-1.1c0.2-0.2,0.4-0.3,0.6-0.4c0.7-0.1,1.4-0.2,2.1,0.1
			c0.4,0.2,0.6,0.3,0.6,0.8c0,0.5,0,1,0,1.5c0,0.2,0,0.5,0.1,0.7c0.1,0.2,0.2,0.4,0.4,0.5c0.3,0.2,0.5,0.1,0.6-0.3
			c0-0.2,0.1-0.5,0.1-0.7c0.1-1.1,0.4-2,1-2.9c0.3-0.5,0.6-0.9,0.8-1.4c0.2-0.4,0.4-0.6,0.8-0.8c0.5-0.2,1.1-0.4,1.7-0.6
			c1.1-0.3,2.1-0.6,3.2-0.9c2.4-0.6,4.7-1.1,7.1-1.8c0.7-0.2,1.4-0.4,2-0.8c0.6-0.4,1.2-0.7,1.9-1c1.4-0.6,2.8-1.1,4.3-1.7
			c1.5-0.5,3-1,4.4-1.7c0.7-0.3,1.4-0.5,2.1-0.7c0.6-0.1,1.1-0.1,1.6,0.1c0.4,0.2,0.8,0.4,1.2,0.5c1.1-4.4,2.2-7.1,4.5-10.4
			c0.6-0.8,1.2-1.6,1.8-2.4c-0.7-0.6-1.2-1.4-1.3-2.4c-0.1-0.3,0-0.5,0.2-0.6c0.3-0.2,0.7-0.4,1.1-0.5c0.2-0.1,0.4-0.1,0.6-0.3
			C55.6,11.4,55.7,11,55.5,10.6z M68.9,1.7c0-0.3-0.1-0.5-0.5-0.6c-0.1,0-0.2,0-0.3-0.1h-1.4c-0.8,0.4-1.4,1-2.1,1.5
			c-0.2,0.1-0.3,0.3-0.5,0.4c-0.5,0.4-0.8,0.9-0.9,1.5c-0.3,1.5-1.1,2.8-2,4.1c-0.5,0.7-1,1.2-1.6,1.8c-0.2,0.2-0.4,0.4-0.5,0.6
			c3.1-2.5,6.2-4.1,8.5-4.6c0,0,0,0,0,0c0.2-0.3,0.4-0.7,0.7-1c0.2-0.3,0.3-0.6,0.3-0.9C68.9,3.5,68.9,2.6,68.9,1.7
			C68.9,1.8,68.9,1.7,68.9,1.7z M92.4,50.6c0-0.5-0.2-1-0.4-1.4c0-0.1-0.1-0.1-0.1-0.2c-0.3-0.4-0.7-0.8-1.1-1.1
			c-1.2-0.9-2.5-1.6-3.8-2.2c-1.6-0.8-3.2-1.5-4.8-2.3c-1.8-0.8-3.8-1.4-5.8-1.7c-0.2,0-0.3,0-0.4-0.1c-0.2-0.1-0.5-0.2-0.7-0.2
			c-0.3-0.1-0.6-0.1-0.9-0.2c-0.6-0.1-1-0.4-1.4-0.8s-0.7-0.8-1.1-1.3c-0.3-0.3-0.6-0.7-0.7-1.2c0-0.1,0-0.1-0.1-0.2
			c-0.2-0.8-0.5-1.7-0.8-2.5c-0.1-0.1-0.1-0.2-0.1-0.4c-3.4,5-8.7,9.6-16.3,13.1c-0.1,1.3-0.3,2.7-0.5,4c0.1,0,0.2,0.1,0.3,0.2
			c0.2,0.1,0.3,0.2,0.3,0.5c0.1,1,0.1,2,0.1,3c0.1,1.8,0.1,3.6,0.2,5.5c0,1.2,0.1,2.5,0.1,3.7c0,0.1,0,0.2,0,0.3
			c0.1,0.8,0,1.6-0.1,2.3c-0.2,1-0.3,2.1-0.3,3.1c0,0.8-0.1,1.7-0.3,2.5c-0.5,1.8-0.7,3.7-0.7,5.7c0,0.6,0,1.2,0,1.8
			c0,1.7,0,3.3,0,5c0,0.9,0,1.8,0.1,2.7c0.1,1.7,0,3.3-0.1,5c0,0,0,0.1,0,0.1c0,0.3-0.1,0.6-0.3,0.9c-0.2,0.2-0.3,0.5-0.4,0.7
			c-0.1,0.4-0.3,0.8-0.5,1.1c-0.6,1.1-1.3,2.1-1.8,3.2c-0.1,0.2-0.2,0.4-0.3,0.6c-0.2,0.4,0,0.6,0.4,0.8c0.2,0.1,0.4,0.1,0.5,0.1
			c0.3,0,0.5,0,0.8,0.1h1.2c0.1,0,0.3-0.1,0.4-0.1c0.8-0.2,1.3-0.7,1.6-1.4c0.1-0.4,0.2-0.8,0.3-1.3c0.1-0.7,0.2-1.4,0.6-2
			c0.3-0.5,0.6-1,1-1.4c0.2-0.3,0.4-0.6,0.5-0.9c0.1-0.3,0.1-0.7,0-1.1c-0.1-0.3-0.2-0.6-0.3-0.9c-0.1-0.4-0.2-0.7-0.2-1.1
			c0-0.4,0.1-0.7,0.1-1.1c0-0.6,0.1-1.1,0.2-1.7c0.1-0.6,0.3-1.2,0.4-1.8c0.2-1,0.5-2,0.8-3c0.3-1.3,0.7-2.6,0.8-4
			c0.1-1.2,0.2-2.4,0.3-3.6c0-0.5,0.1-1,0.2-1.6c0.1-0.5,0.3-1,0.5-1.6c0.2-0.7,0.5-1.3,0.7-2c0.2-1,0.3-2,0.3-3
			c0-0.5,0-0.9,0.1-1.4c0-0.2,0.1-0.3,0.3-0.3c0.1,0,0.3-0.1,0.4-0.1c0.2,0,0.5-0.1,0.7-0.1c1-0.4,2-0.6,3-1.1
			c1.1-0.5,2.2-0.9,3.2-1.4c1.4-0.7,2.8-1.3,4.2-2c1.8-0.8,3.5-1.7,5.4-2.3c1.8-0.6,3.5-1.2,5.3-1.7c2-0.7,4-1.4,6.1-1.9
			c0.4-0.1,0.8-0.2,1.2-0.5c0.6-0.4,1.2-0.9,1.7-1.4c0.4-0.4,0.6-0.8,0.6-1.4c0-0.1,0-0.2,0-0.3C92.4,51.3,92.4,51,92.4,50.6z
			 M77.8,52.3c-1.1,0.7-2.2,1.4-3.3,2.1c-0.8,0.5-1.6,1-2.3,1.5c-0.6,0.4-1.3,0.7-1.9,1.1c-0.3,0.1-0.5,0.1-0.8,0
			c-0.5-0.3-1-0.5-1.5-0.7c-0.6-0.2-1-0.1-1.4,0.3c-0.2,0.3-0.4,0.6-0.6,0.9c0,0.1-0.1,0.2-0.1,0.2c-0.2,1.1-0.8,1.9-1.4,2.8
			c-0.1,0.1-0.1,0.2-0.2,0.3c-0.9,0.8-1.8,1.6-2.7,2.3c-0.1,0.1-0.2,0.2-0.4,0.2c0-0.1,0-0.2,0-0.3c0.8-3,1.5-5.9,2.4-8.9
			c0.1-0.3,0.2-0.5,0.5-0.6c0.5-0.2,0.9-0.3,1.4-0.4c0.2,0,0.3-0.1,0.3-0.3c0-0.5,0-0.9,0-1.4c0-0.3,0-0.3,0.3-0.4
			c0.6-0.2,1.2-0.5,1.8-0.7c0.2-0.1,0.3-0.3,0.4-0.5c0.1-0.4,0.1-0.4,0.4-0.3c1.2,0.5,2.4,0.8,3.7,1.1c1.7,0.4,3.4,0.8,5.1,1.2
			c0.2,0,0.4,0.1,0.6,0.2C78,52.2,77.9,52.3,77.8,52.3z M68.6,31.7c-0.2-0.4-0.4-0.8-0.8-1.1c-0.1-0.1-0.2-0.3-0.3-0.5
			c-0.4-0.9-0.7-1.8-1.1-2.8c-0.1-0.1-0.1-0.3-0.1-0.4c0-0.5-0.1-1-0.1-1.5c0-0.5,0-1.1-0.1-1.6c-0.2-1.1-0.6-2.1-1.2-3
			c-0.5-0.7-1.1-1.3-1.9-1.7c-0.4-0.2-0.6-0.6-0.7-1.1c0-0.3,0-0.5-0.1-0.8c-0.1-0.7,0-1.4,0.1-2c0-0.2,0.1-0.3,0.3-0.4
			c0.2,0,0.4,0.1,0.5,0.3c0.1,0.2,0.2,0.4,0.3,0.6c0.1,0.3,0.2,0.6,0.4,0.9c0.1,0.2,0.2,0.4,0.4,0.5c0.3,0.2,0.6,0.1,0.7-0.3
			c0-0.2,0-0.5-0.1-0.7c-0.1-0.4-0.2-0.7-0.4-1.1c-0.1-0.3-0.2-0.6-0.2-1c0.1-0.6,0.1-1.1,0.1-1.7c0-0.4,0.1-0.8,0.3-1.1
			c0.7-1.2,1.4-2.4,2.2-3.6c-5.5,2.5-10.3,13.8-12.2,26.6c0.1,0.1,0.2,0.2,0.3,0.3c0.3,0.3,0.5,0.6,0.8,0.9c0.2,0.3,0.3,0.6,0.2,1
			c-0.1,0.2-0.2,0.4-0.3,0.6s-0.2,0.4-0.3,0.6c-0.1,0.3-0.3,0.5-0.3,0.8c0,0.5-0.2,0.9-0.3,1.3c-0.2,0.4-0.3,0.8-0.4,1.3
			c-0.2,1.1-0.3,2.2-0.5,3.3c0,0.6,0,1.1,0,1.7c5.7-2.4,11.2-7.9,15.2-14.1C68.7,32,68.6,31.9,68.6,31.7z"/>
	</g>
</g>
</svg>
