<?xml version="1.0" encoding="utf-8"?>
<!-- Generator: Adobe Illustrator 21.0.0, SVG Export Plug-In . SVG Version: 6.00 Build 0)  -->
<svg version="1.1" id="Camada_1" xmlns="http://www.w3.org/2000/svg" xmlns:xlink="http://www.w3.org/1999/xlink" x="0px" y="0px"
	 viewBox="0 0 102 108" style="enable-background:new 0 0 102 108;" xml:space="preserve">
<g id="word">
	<path d="M49.5,3.2c-0.1-0.1-0.2-0.1-0.3-0.2l0,0c-0.3,0-0.6,0-0.9,0C48.7,3.1,49.1,3.2,49.5,3.2c0.2,0.1,0.3,0.1,0.4,0.2
		C49.8,3.3,49.7,3.3,49.5,3.2z M94.5,52c-0.8-0.7-1.6-1.4-2.4-1.9l-0.7,1.3c1.4,1.1,2.6,2.4,3.6,3.7c3,4,4.2,8.6,4.2,13.2
		c0,14.2-13.3,23.8-33.7,23.8c-3.1,0-5.8-0.1-8.4-0.4c-1.4-0.2-2.9-0.4-4.3-0.7c0,1,0.1,1.9,0.1,2.9c0.1,1.8,0,3.5-0.1,5.3
		c1.4,0.3,2.8,0.6,4.2,0.7c1.7,0.2,3.5,0.3,5.4,0.3c19.4,0,38.5-15.5,38.5-31.9C101,62,98.4,55.7,94.5,52z"/>
	<path d="M70.2,6.3c-0.4,0-0.9,0.1-1.4,0.2c-2.4,0.5-5.8,2.2-9,4.9l0,0c-1.7,1.4-3.3,3-4.9,4.9c-0.7,0.8-1.3,1.6-1.9,2.5
		c-2.5,3.5-3.6,6.4-4.8,11.1c-1.2,4.9-2.4,11.8-5.1,23.5c-3.3,1-10.4,2.4-13.7,2.5c-15,0.6-26.5-11-26.8-23.9
		C2.3,14.6,19.8,2,37.3,2c2.6,0,6.5,0.1,11,1.1c0.3,0,0.6,0,0.9,0l0,0c-3.2-1.7-7.4-2.2-12-2.2C19.6,0.8,0.6,13.3,1.1,31.9
		c0.4,14.7,12.9,26,28.3,25.3c4.2-0.2,13.2-2,13.2-2s-1.2,10.6-3.7,17C36,79.9,32.4,85,32.4,85c-8.6-4.9-14-7-18.5-7
		C7,77.9,1,82.1,1,87.2c0,6.9,7.3,10.4,15.2,10.4c5.5,0,9.1-1.5,16.8-6.7c8.7,4.9,14.3,6.9,19.8,8.2c0.1-1.8,0.2-3.5,0.1-5.3
		c0-1-0.1-1.9-0.1-2.9c-3.9-0.8-9.9-1.3-15.8-3.6C48.3,75,51.2,66.7,53.2,55c0.3-1.4,0.4-2.8,0.6-4.2C62,47.2,67.6,42.3,71.3,37
		c4.8-6.9,6.4-14.5,6.4-21C77.6,11.3,76.4,6.3,70.2,6.3z M13.9,95.9c-6.5,0-11.5-4.1-11.5-8.7c0-3.6,4.6-7.4,9.2-7.4
		c5.6,0,16.1,6.9,18.2,8.4C25.8,92.4,18.9,95.9,13.9,95.9z M69.9,33.9c-4.2,6.6-10.1,12.5-16.2,15c0-0.6,0-1.2,0-1.8
		c0.1-3.6,0.4-7.2,0.9-10.7c2-13.7,7.1-25.7,13-28.4c0.8-0.4,1.6-0.6,2.4-0.6c5.6,0,6.1,4.2,6.1,8.5C76.2,21.2,73.8,27.9,69.9,33.9z
		"/>
</g>
<g id="dancer" fill="#111">
	<path d="M55.8,11C55.8,10.9,55.8,10.9,55.8,11c-0.3-0.5-0.4-0.9-0.5-1.4c0-0.1-0.1-0.3-0.2-0.3C55,9.2,54.9,9,54.9,8.9
		c0-0.2-0.1-0.4-0.3-0.5c-0.3-0.3-0.4-0.7-0.3-1.1c0.1-0.5,0-0.6-0.5-0.8h-0.1c-0.5-0.2-0.5-0.2-0.6-0.7c-0.1-0.1-0.1,0-0.2,0
		c-0.3,0.1-0.5,0-0.7-0.2l-0.1-0.1c-0.3-0.6-0.8-0.9-1.4-1.2c-0.3-0.2-0.7-0.4-1-0.7c-0.1-0.1-0.2-0.2-0.3-0.3l0,0V3.2
		c0.1-0.1,0-0.2-0.1-0.2l0,0c-0.3,0-0.6,0-0.9,0c-0.2,0-0.4,0-0.5,0.1c-0.3,0.1-0.7,0.1-1,0.2c-0.2,0-0.4,0-0.6,0.1
		c-0.5,0.2-1,0.2-1.5,0.2s-0.9,0.2-1.3,0.5C42,5,40.9,6.3,40,7.8c-0.3,0.6-0.4,1.2-0.6,1.8c-0.3,1.3-0.4,2.6-0.4,3.9
		c0,0.5,0,1-0.1,1.6c0,0.4,0,0.7,0,1.1c0,0.3,0.2,0.5,0.4,0.8s0.5,0.5,0.8,0.7c0.6,0.4,1.2,0.7,1.7,1.2c0.1,0.1,0.2,0.2,0.3-0.1
		c0-0.1,0.1-0.1,0.2,0c0,0,0,0.1,0.1,0.2c0,0.1,0.1,0.1,0.2,0.1c0.1,0,0.1-0.1,0.1-0.2v-0.1c0.2,0.2,0.1,0.4,0.3,0.6
		c0.2,0.1,0.3,0.3,0.5,0.3c0-0.2-0.1-0.4-0.1-0.5c0.3,0,0.5,0.1,0.7,0.4c0.1,0.1,0.2,0.2,0.4,0.2c0-0.2-0.1-0.3-0.2-0.4
		c-0.1-0.2-0.3-0.3-0.4-0.5c-0.1-0.1-0.2-0.2,0-0.3c0.1-0.1,0.2,0.1,0.3,0.1c0,0.1,0.1,0.2,0.1,0.2c0,0.1,0.1,0.2,0.1,0.3
		c0.1,0.1,0.2,0.1,0.2,0s0.1-0.1,0.2-0.1c0.2,0.1,0.3,0.2,0.5,0.3c0.3,0.1,0.5,0.2,0.8,0s0.6-0.3,0.8-0.6c0-0.1,0.1-0.1,0.2-0.1
		c0.3-0.2,0.6-0.4,0.7-0.8c0-0.1,0.1-0.1,0.2-0.1c0.1,0,0.1,0.1,0.1,0.2c0.1,0.5,0.2,1.1,0.1,1.7c0,0.2-0.1,0.4-0.2,0.5
		c-0.4,0.5-0.8,0.9-1.3,1.3c-0.1,0.1-0.3,0.2-0.5,0.2c-1.1,0.3-2.1,0.7-3.1,1.2c-0.6,0.3-1.2,0.6-1.7,1c-1.1,0.8-2.2,1.7-3.2,2.5
		c-0.3,0.3-0.7,0.5-1,0.7c-1.8,1-3.6,1.9-5.4,2.6c-0.8,0.3-1.7,0.6-2.6,0.9c-1.5,0.5-3,1.2-4.4,1.8c-3,1.3-5.9,2.7-9,3.9
		c-0.7,0.3-1.3,0.7-2,1c-1.2,0.7-2.3,1.4-3.5,2c-0.5,0.3-1.1,0.6-1.6,0.8c-0.3,0.1-0.6,0.2-1,0.3c-0.4,0-0.4,0.1-0.5,0.5
		c0,0.2-0.1,0.3-0.2,0.3c-0.5,0.2-0.8,0.5-1.1,0.9v0.2c0.1,0.1,0.3,0.2,0.4,0.3c0.1,0.2,0.3,0.2,0.5,0.2s0.3-0.1,0.5-0.1
		c0.1,0,0.2-0.1,0.3,0c0,0.2-0.2,0.4-0.3,0.6c-0.1,0.2-0.2,0.4-0.3,0.6c-0.1,0.1-0.1,0.3,0,0.3c0.1,0.1,0.3,0.1,0.4,0.1
		c0.2-0.1,0.3-0.2,0.3-0.3c0.2-0.3,0.4-0.7,0.6-1c0.3-0.4,0.6-0.8,1-1.2c0.2-0.2,0.4-0.4,0.7-0.4c0.8-0.1,1.5-0.2,2.3,0.1
		c0.5,0.2,0.6,0.3,0.6,0.8s0,1.1,0,1.6c0,0.3,0,0.5,0.1,0.8c0.1,0.2,0.2,0.4,0.4,0.5c0.3,0.2,0.5,0.1,0.6-0.3c0-0.3,0.1-0.5,0.1-0.8
		c0.1-1.1,0.4-2.2,1.1-3.1c0.3-0.5,0.6-1,0.9-1.5c0.2-0.4,0.5-0.7,0.9-0.8c0.6-0.2,1.2-0.5,1.8-0.6c1.1-0.3,2.3-0.7,3.4-0.9
		c2.5-0.7,5-1.2,7.5-1.9c0.7-0.2,1.4-0.5,2.1-0.9c0.6-0.4,1.3-0.7,2-1c1.5-0.7,3-1.2,4.6-1.8c1.6-0.6,3.2-1.1,4.7-1.8
		c0.7-0.3,1.5-0.6,2.3-0.7c0.6-0.1,1.2-0.1,1.7,0.2c0.4,0.2,0.8,0.4,1.2,0.6c1.2-4.7,2.3-7.6,4.8-11.1c0.6-0.9,1.3-1.7,1.9-2.5
		c-0.8-0.7-1.2-1.5-1.4-2.5c-0.1-0.3,0-0.5,0.3-0.7s0.7-0.4,1.1-0.5c0.2-0.1,0.5-0.2,0.7-0.3C55.9,11.9,56,11.4,55.8,11z M70.1,1.5
		c0-0.4-0.2-0.5-0.5-0.6c-0.1,0-0.2,0-0.3-0.1h-1.4c-0.8,0.4-1.5,1-2.2,1.6c-0.2,0.1-0.3,0.3-0.5,0.4c-0.5,0.4-0.8,0.9-1,1.6
		C63.8,6,63,7.4,62,8.7c-0.5,0.7-1.1,1.3-1.7,2c-0.2,0.2-0.4,0.4-0.6,0.7C63,8.6,66.3,7,68.8,6.5l0,0c0.2-0.3,0.5-0.7,0.7-1
		s0.3-0.6,0.4-1C70,3.6,70,2.6,70.1,1.7C70.1,1.6,70.1,1.5,70.1,1.5z M95.1,53.6c0-0.5-0.2-1-0.4-1.5c0-0.1-0.1-0.1-0.1-0.2
		c-0.3-0.5-0.8-0.8-1.2-1.2c-1.3-1-2.7-1.7-4.1-2.4c-1.7-0.8-3.4-1.6-5.1-2.4c-2-0.9-4-1.5-6.2-1.8c-0.2,0-0.3,0-0.5-0.1
		s-0.5-0.2-0.8-0.2c-0.3-0.1-0.6-0.1-0.9-0.2c-0.6-0.1-1.1-0.4-1.5-0.8c-0.4-0.5-0.8-0.9-1.2-1.3c-0.4-0.4-0.7-0.8-0.7-1.3
		c0-0.1,0-0.2-0.1-0.2c-0.3-0.9-0.6-1.8-0.9-2.6c-0.1-0.1-0.1-0.3-0.2-0.4c-3.6,5.3-9.2,10.2-17.4,14c-0.1,1.4-0.3,2.8-0.6,4.2
		c0.1,0,0.2,0.1,0.3,0.2c0.2,0.1,0.3,0.3,0.3,0.5c0.1,1.1,0.1,2.2,0.1,3.2C54,61,54,63,54.1,64.9c0,1.3,0.1,2.6,0.1,3.9
		c0,0.1,0,0.2,0,0.3c0.1,0.8,0,1.7-0.1,2.5c-0.2,1.1-0.3,2.2-0.3,3.3c0,0.9-0.1,1.8-0.4,2.6c-0.5,2-0.8,4-0.8,6c0,0.7,0,1.3,0,2
		c0,1.8,0,3.6,0,5.3c0,1,0.1,1.9,0.1,2.9c0.1,1.8,0,3.5-0.1,5.3v0.1c0,0.3-0.1,0.7-0.3,1s-0.3,0.5-0.4,0.8c-0.1,0.4-0.3,0.8-0.6,1.2
		c-0.7,1.1-1.4,2.3-1.9,3.4c-0.1,0.2-0.2,0.4-0.3,0.7c-0.2,0.4,0,0.7,0.4,0.8c0.2,0.1,0.4,0.1,0.6,0.1c0.3,0,0.6,0,0.9,0.1h1.3
		c0.1,0,0.3-0.1,0.4-0.1c0.8-0.2,1.4-0.7,1.7-1.5c0.2-0.4,0.2-0.9,0.3-1.3c0.1-0.7,0.3-1.5,0.7-2.1c0.3-0.5,0.6-1,1-1.5
		c0.2-0.3,0.4-0.6,0.5-0.9s0.1-0.7,0-1.1c-0.1-0.3-0.2-0.7-0.3-1c-0.1-0.4-0.2-0.8-0.2-1.2c0-0.4,0.1-0.8,0.1-1.2
		c0-0.6,0.1-1.2,0.2-1.8c0.1-0.6,0.3-1.3,0.4-1.9c0.3-1.1,0.5-2.1,0.8-3.2c0.4-1.4,0.7-2.8,0.9-4.2c0.1-1.3,0.2-2.6,0.3-3.8
		c0-0.6,0.1-1.1,0.2-1.7c0.2-0.6,0.3-1.1,0.5-1.7c0.2-0.7,0.5-1.4,0.7-2.1c0.2-1,0.3-2.1,0.4-3.2c0-0.5,0.1-1,0.1-1.5
		c0-0.2,0.1-0.3,0.3-0.3c0.1,0,0.3-0.1,0.4-0.1c0.2,0,0.5-0.1,0.7-0.1c1-0.4,2.2-0.6,3.2-1.1c1.1-0.5,2.3-0.9,3.4-1.5
		c1.5-0.7,3-1.4,4.4-2.2c1.9-0.9,3.8-1.8,5.8-2.5c1.9-0.6,3.8-1.2,5.6-1.8c2.2-0.7,4.3-1.5,6.5-2c0.4-0.1,0.8-0.3,1.2-0.5
		c0.7-0.4,1.3-0.9,1.8-1.5C94.7,56,95,55.5,95,55c0-0.1,0-0.2,0-0.3C95,54.3,95.1,54,95.1,53.6z M79.5,55.4
		c-1.1,0.8-2.3,1.5-3.5,2.3c-0.8,0.5-1.7,1.1-2.5,1.7c-0.7,0.4-1.4,0.8-2.1,1.1c-0.3,0.2-0.6,0.1-0.8,0c-0.5-0.3-1-0.6-1.6-0.8
		s-1.1-0.1-1.5,0.4c-0.3,0.3-0.5,0.6-0.6,1c0,0.1-0.1,0.2-0.1,0.3c-0.2,1.1-0.8,2-1.4,3c-0.1,0.1-0.1,0.2-0.2,0.3
		c-1,0.8-1.9,1.7-2.9,2.4c-0.1,0.1-0.2,0.2-0.4,0.2c0-0.1,0-0.2,0-0.3c0.8-3.2,1.6-6.3,2.5-9.4c0.1-0.3,0.3-0.5,0.6-0.6
		c0.5-0.2,1-0.4,1.5-0.4c0.3,0,0.3-0.1,0.3-0.3c0-0.5,0-1,0-1.4c0-0.3,0-0.3,0.3-0.5c0.7-0.3,1.3-0.5,1.9-0.8
		c0.2-0.1,0.4-0.3,0.4-0.5c0.1-0.4,0.1-0.4,0.5-0.3c1.3,0.5,2.6,0.9,3.9,1.2c1.8,0.4,3.6,0.8,5.4,1.2c0.2,0,0.4,0.1,0.6,0.2
		C79.8,55.3,79.6,55.3,79.5,55.4z M69.7,33.5c-0.2-0.4-0.5-0.8-0.8-1.2c-0.2-0.2-0.3-0.3-0.3-0.5c-0.4-1-0.8-2-1.1-2.9
		c-0.1-0.1-0.1-0.3-0.1-0.4c0-0.5-0.1-1.1-0.1-1.6c0-0.6,0-1.1-0.2-1.7c-0.2-1.1-0.6-2.2-1.3-3.2c-0.6-0.7-1.2-1.3-2-1.8
		c-0.5-0.3-0.7-0.6-0.7-1.1c0-0.3,0-0.6-0.1-0.9c-0.1-0.7,0-1.4,0.1-2.1c0-0.2,0.1-0.4,0.3-0.4s0.4,0.1,0.5,0.3s0.2,0.4,0.3,0.7
		c0.1,0.3,0.3,0.7,0.4,1c0.1,0.2,0.2,0.4,0.4,0.5c0.3,0.2,0.7,0.1,0.7-0.3c0-0.2,0-0.5-0.1-0.7c-0.1-0.4-0.2-0.8-0.4-1.1
		c-0.1-0.3-0.2-0.7-0.2-1c0.1-0.6,0.1-1.2,0.1-1.8c0-0.4,0.1-0.8,0.3-1.1c0.7-1.3,1.5-2.6,2.3-3.9c-5.9,2.7-11,14.7-13,28.3
		c0.1,0.1,0.2,0.2,0.3,0.3c0.3,0.3,0.5,0.6,0.8,0.9s0.3,0.7,0.2,1c-0.1,0.2-0.2,0.4-0.3,0.6c-0.1,0.2-0.2,0.4-0.3,0.6
		c-0.2,0.3-0.3,0.6-0.3,0.9c0,0.5-0.2,0.9-0.3,1.4c-0.2,0.5-0.3,0.9-0.4,1.4c-0.2,1.2-0.4,2.4-0.5,3.5c0,0.6,0,1.2,0,1.8
		c6.1-2.5,12-8.4,16.2-15C69.8,33.8,69.8,33.6,69.7,33.5z"/>
</g>
</svg>
