<?xml version="1.0" encoding="utf-8"?>
<!-- Generator: Adobe Illustrator 21.0.0, SVG Export Plug-In . SVG Version: 6.00 Build 0)  -->
<svg version="1.1" id="Capa_1" xmlns="http://www.w3.org/2000/svg" xmlns:xlink="http://www.w3.org/1999/xlink" x="0px" y="0px"
	 viewBox="0 0 60 60" enable-background="new 0 0 60 60" xml:space="preserve">
<g>
	<g>
		<path d="M46.84,36.93c-1.19-1.24-2.62-1.9-4.14-1.9c-1.51,0-2.95,0.65-4.19,1.89l-3.87,3.86c-0.32-0.17-0.64-0.33-0.94-0.49
			c-0.44-0.22-0.86-0.43-1.21-0.65c-3.62-2.3-6.92-5.3-10.07-9.18c-1.53-1.93-2.56-3.56-3.31-5.21c1-0.92,1.93-1.87,2.84-2.79
			c0.34-0.34,0.69-0.7,1.03-1.04c2.57-2.57,2.57-5.9,0-8.47l-3.34-3.34c-0.38-0.38-0.77-0.77-1.14-1.16
			c-0.73-0.76-1.51-1.54-2.3-2.28c-1.19-1.18-2.61-1.8-4.1-1.8s-2.94,0.62-4.16,1.8C7.92,6.17,7.92,6.17,7.91,6.18l-4.16,4.2
			c-1.57,1.57-2.46,3.48-2.66,5.69c-0.29,3.57,0.76,6.9,1.57,9.08c1.98,5.35,4.95,10.31,9.36,15.62
			c5.36,6.4,11.81,11.46,19.18,15.02c2.82,1.33,6.57,2.91,10.77,3.18C42.24,58.99,42.5,59,42.75,59c2.83,0,5.2-1.02,7.06-3.04
			c0.01-0.02,0.04-0.04,0.05-0.06c0.64-0.77,1.37-1.47,2.14-2.22c0.53-0.5,1.06-1.03,1.59-1.58c1.21-1.26,1.85-2.73,1.85-4.24
			c0-1.52-0.65-2.97-1.89-4.2L46.84,36.93z M51.22,49.82C51.21,49.82,51.21,49.83,51.22,49.82c-0.48,0.51-0.97,0.98-1.49,1.49
			c-0.8,0.76-1.6,1.55-2.36,2.45c-1.24,1.32-2.69,1.95-4.6,1.95c-0.18,0-0.38,0-0.56-0.01c-3.64-0.23-7.01-1.65-9.55-2.86
			c-6.93-3.35-13.01-8.12-18.07-14.15C10.41,33.65,7.62,29,5.77,24c-1.14-3.05-1.55-5.42-1.37-7.66c0.12-1.43,0.67-2.62,1.69-3.64
			l4.17-4.17c0.6-0.56,1.24-0.87,1.86-0.87c0.77,0,1.4,0.47,1.79,0.86c0.01,0.01,0.02,0.02,0.04,0.04c0.75,0.7,1.46,1.42,2.2,2.19
			c0.38,0.39,0.77,0.78,1.16,1.19l3.34,3.34c1.3,1.3,1.3,2.5,0,3.79c-0.35,0.35-0.7,0.71-1.05,1.05c-1.03,1.05-2.01,2.03-3.07,2.99
			c-0.02,0.02-0.05,0.04-0.06,0.06c-1.05,1.05-0.86,2.08-0.64,2.78c0.01,0.04,0.02,0.07,0.04,0.11c0.87,2.11,2.09,4.09,3.95,6.45
			l0.01,0.01c3.38,4.16,6.94,7.41,10.87,9.89c0.5,0.32,1.02,0.58,1.51,0.82c0.44,0.22,0.86,0.43,1.21,0.65
			c0.05,0.02,0.1,0.06,0.15,0.09c0.42,0.21,0.81,0.31,1.21,0.31c1.02,0,1.65-0.64,1.86-0.84l4.19-4.19
			c0.42-0.42,1.08-0.92,1.85-0.92c0.76,0,1.38,0.48,1.76,0.89c0.01,0.01,0.01,0.01,0.02,0.02l6.74,6.74
			C52.47,47.24,52.47,48.52,51.22,49.82z"/>
		<path d="M32.34,14.8c3.21,0.54,6.12,2.06,8.45,4.38c2.33,2.33,3.83,5.24,4.38,8.45C45.31,28.43,46.01,29,46.8,29
			c0.1,0,0.18-0.01,0.28-0.02c0.91-0.15,1.51-1,1.36-1.91c-0.66-3.88-2.5-7.42-5.3-10.22s-6.34-4.64-10.22-5.3
			c-0.91-0.15-1.75,0.45-1.91,1.35C30.85,13.78,31.44,14.65,32.34,14.8z"/>
		<path d="M58.93,26.59c-1.09-6.39-4.1-12.2-8.73-16.83S39.76,2.11,33.37,1.03c-0.89-0.16-1.74,0.45-1.9,1.35
			c-0.15,0.91,0.45,1.75,1.36,1.91c5.7,0.97,10.91,3.67,15.04,7.8c4.14,4.14,6.83,9.34,7.8,15.04c0.13,0.81,0.83,1.37,1.63,1.37
			c0.1,0,0.18-0.01,0.28-0.02C58.48,28.34,59.09,27.48,58.93,26.59z"/>
	</g>
</g>
</svg>
