<?xml version="1.0" encoding="utf-8"?>
<!-- Generator: Adobe Illustrator 21.0.0, SVG Export Plug-In . SVG Version: 6.00 Build 0)  -->
<svg version="1.1" id="Camada_1" xmlns="http://www.w3.org/2000/svg" xmlns:xlink="http://www.w3.org/1999/xlink" x="0px" y="0px"
	 viewBox="0 0 60 60" enable-background="new 0 0 60 60" xml:space="preserve">
<path d="M50.76,9.24C45.45,3.93,38.39,1,30.87,1c0,0,0,0,0,0c-3.72,0-7.34,0.72-10.76,2.14c-3.43,1.42-6.5,3.47-9.12,6.1
	c-5.31,5.31-8.24,12.38-8.24,19.89c0,4.48,1.08,8.93,3.13,12.9L1.15,55.53c-0.33,0.95-0.1,1.99,0.62,2.7C2.27,58.73,2.92,59,3.6,59
	c0.29,0,0.58-0.05,0.87-0.15l13.51-4.73c3.97,2.05,8.42,3.13,12.9,3.13c7.51,0,14.58-2.93,19.89-8.24C56.07,43.7,59,36.64,59,29.13
	C59,21.61,56.07,14.55,50.76,9.24z M48.36,46.61c-4.67,4.67-10.88,7.24-17.48,7.24c-4.04,0-8.05-1-11.61-2.89
	c-0.64-0.34-1.41-0.4-2.09-0.16L4.91,55.09L9.2,42.82c0.24-0.68,0.18-1.45-0.16-2.09c-1.89-3.55-2.89-7.57-2.89-11.61
	c0-6.6,2.57-12.81,7.24-17.48C18.06,6.97,24.27,4.4,30.87,4.4h0c6.6,0,12.81,2.57,17.48,7.24c4.67,4.67,7.24,10.88,7.24,17.48
	S53.03,41.94,48.36,46.61z"/>
<g>
	<path d="M44.85,35.51c-0.17-0.28-0.64-0.46-1.33-0.81c-0.7-0.34-4.14-2.02-4.77-2.24c-0.65-0.24-1.11-0.35-1.58,0.34
		c-0.46,0.69-1.79,2.25-2.21,2.72c-0.4,0.46-0.81,0.52-1.51,0.18c-0.69-0.35-2.94-1.08-5.61-3.44c-2.08-1.84-3.48-4.1-3.88-4.8
		c-0.41-0.69-0.04-1.06,0.3-1.41c0.31-0.31,0.7-0.81,1.05-1.21c0.35-0.41,0.46-0.69,0.7-1.15c0.23-0.47,0.11-0.87-0.06-1.22
		c-0.18-0.35-1.57-3.75-2.15-5.14c-0.58-1.38-1.16-1.15-1.57-1.15c-0.41,0-0.87-0.06-1.34-0.06c-0.47,0-1.22,0.17-1.86,0.86
		c-0.64,0.7-2.44,2.37-2.44,5.78c0,3.41,2.5,6.7,2.85,7.16c0.35,0.46,4.83,7.68,11.92,10.45c7.1,2.78,7.1,1.85,8.38,1.73
		c1.28-0.11,4.13-1.67,4.71-3.29C45.03,37.19,45.03,35.8,44.85,35.51z M44.85,35.51c-0.17-0.28-0.64-0.46-1.33-0.81
		c-0.7-0.34-4.14-2.02-4.77-2.24c-0.65-0.24-1.11-0.35-1.58,0.34c-0.46,0.69-1.79,2.25-2.21,2.72c-0.4,0.46-0.81,0.52-1.51,0.18
		c-0.69-0.35-2.94-1.08-5.61-3.44c-2.08-1.84-3.48-4.1-3.88-4.8c-0.41-0.69-0.04-1.06,0.3-1.41c0.31-0.31,0.7-0.81,1.05-1.21
		c0.35-0.41,0.46-0.69,0.7-1.15c0.23-0.47,0.11-0.87-0.06-1.22c-0.18-0.35-1.57-3.75-2.15-5.14c-0.58-1.38-1.16-1.15-1.57-1.15
		c-0.41,0-0.87-0.06-1.34-0.06c-0.47,0-1.22,0.17-1.86,0.86c-0.64,0.7-2.44,2.37-2.44,5.78c0,3.41,2.5,6.7,2.85,7.16
		c0.35,0.46,4.83,7.68,11.92,10.45c7.1,2.78,7.1,1.85,8.38,1.73c1.28-0.11,4.13-1.67,4.71-3.29C45.03,37.19,45.03,35.8,44.85,35.51z
		 M44.85,35.51c-0.17-0.28-0.64-0.46-1.33-0.81c-0.7-0.34-4.14-2.02-4.77-2.24c-0.65-0.24-1.11-0.35-1.58,0.34
		c-0.46,0.69-1.79,2.25-2.21,2.72c-0.4,0.46-0.81,0.52-1.51,0.18c-0.69-0.35-2.94-1.08-5.61-3.44c-2.08-1.84-3.48-4.1-3.88-4.8
		c-0.41-0.69-0.04-1.06,0.3-1.41c0.31-0.31,0.7-0.81,1.05-1.21c0.35-0.41,0.46-0.69,0.7-1.15c0.23-0.47,0.11-0.87-0.06-1.22
		c-0.18-0.35-1.57-3.75-2.15-5.14c-0.58-1.38-1.16-1.15-1.57-1.15c-0.41,0-0.87-0.06-1.34-0.06c-0.47,0-1.22,0.17-1.86,0.86
		c-0.64,0.7-2.44,2.37-2.44,5.78c0,3.41,2.5,6.7,2.85,7.16c0.35,0.46,4.83,7.68,11.92,10.45c7.1,2.78,7.1,1.85,8.38,1.73
		c1.28-0.11,4.13-1.67,4.71-3.29C45.03,37.19,45.03,35.8,44.85,35.51z"/>
</g>
</svg>
