<?xml version="1.0" encoding="utf-8"?>
<!-- Generator: Adobe Illustrator 21.0.0, SVG Export Plug-In . SVG Version: 6.00 Build 0)  -->
<svg version="1.1" id="Capa_1" xmlns="http://www.w3.org/2000/svg" xmlns:xlink="http://www.w3.org/1999/xlink" x="0px" y="0px"
	 viewBox="0 0 334.62 334.62" enable-background="new 0 0 334.62 334.62" xml:space="preserve">
<g>
	<path d="M175.33,287.02C175.32,287.02,175.33,287.02,175.33,287.02c-38.05,0-75.48-1.2-119.13-3.55
		c-25.78-1.41-45.78-21.29-48.63-48.35c-4.76-45.2-4.76-90.83,0-135.63c2.84-26.83,22.82-46.71,48.57-48.33
		c75.27-4.74,144.72-4.74,222.31,0c26.06,1.58,45.59,20.99,48.6,48.3c4.75,43.25,4.76,88.87,0.01,135.63
		c-2.74,27.04-22.25,46.47-48.54,48.36C245.45,285.82,213.38,287.02,175.33,287.02z M166.43,60.45c-37.93,0-72.11,1.19-109.49,3.54
		c-19.68,1.23-34.39,16.05-36.59,36.85c-4.67,43.89-4.67,88.61,0,132.93c2.2,20.97,16.89,35.78,36.54,36.86
		c43.41,2.34,80.61,3.54,118.42,3.54c37.75,0,69.51-1.19,102.29-3.53c19.83-1.43,34.57-16.23,36.66-36.84
		c4.67-45.86,4.67-90.58,0.01-132.93c-2.29-20.87-17.01-35.69-36.59-36.88C239.15,61.64,204.37,60.45,166.43,60.45z M134.58,121.78
		v88.21l84.71-43.8L134.58,121.78z"/>
</g>
</svg>
